<?xml version="1.0" encoding="utf-8"?>
<!-- Generator: Adobe Illustrator 27.5.0, SVG Export Plug-In . SVG Version: 6.00 Build 0)  -->
<svg version="1.1" xmlns="http://www.w3.org/2000/svg" xmlns:xlink="http://www.w3.org/1999/xlink" x="0px" y="0px"
	 viewBox="0 0 750 500" style="enable-background:new 0 0 750 500;" xml:space="preserve">
<g id="BACKGROUND">
	<rect style="fill:#FFFFFF;" width="750" height="500"/>
</g>
<g id="OBJECTS">
	<g>
		<defs>
			<rect id="SVGID_1_" width="750" height="500"/>
		</defs>
		<clipPath id="SVGID_00000103948410546337628980000017820619547298680231_">
			<use xlink:href="#SVGID_1_"  style="overflow:visible;"/>
		</clipPath>
		<g style="clip-path:url(#SVGID_00000103948410546337628980000017820619547298680231_);">
			<path style="fill:#FFDACF;" d="M493.618,544.097c-4.467,24.71-24.315,43.315-44.513,49.543
				c-28.951,8.927-38.746-13.704-78.195-13.772c-46.867-0.08-59.218,31.818-95.724,23.247c-26.367-6.19-22.025-23.324-51.311-31.275
				c-39.366-10.688-74.187,12.945-85.735-2.702c-3.844-5.208-2.908-11.785-2.801-12.465c4.07-25.964,66.988-13.86,120.704-53.905
				c32.852-24.491,35.427-48.482,60.214-49.832c21.152-1.152,24.157,16.054,54.117,24.921c43.824,12.971,65.071-15.652,93.891,0.38
				C484.857,489.692,498.363,517.852,493.618,544.097z"/>
			<path style="fill:#D2CCE0;" d="M-61.597,76.836c2.329,7.845,14.134,43.962,50.536,60.254
				c37.732,16.888,74.402,0.173,80.087-2.529c46.816-22.247,37.312-64.285,82.211-83.965c33.712-14.777,56.59,1.242,78.085-19.978
				c11.528-11.38,20.65-31.487,16.398-48.816C234.255-64.935,125.596-91.084,40.504-66.833C16.157-59.894-24.93-47.518-48.641-8.127
				C-52.945-0.976-74.21,34.352-61.597,76.836z"/>
			<path style="fill:#D2CCE0;" d="M521.296,604.931c-6.478-5.561-32.312-27.74-29.24-53.494c4.007-33.59,52.161-31.13,98.65-77.546
				c53.292-53.208,35.98-102.336,84.23-124.898c40.631-18.999,83.67,1.453,86.729,2.963c41.419,20.45,53.382,61.696,55.839,70.168
				c13.448,46.371-6.661,85.728-14.257,100.595c-30.174,59.057-87.489,80.804-110.219,89.428
				C678.569,617.635,579.762,655.124,521.296,604.931z"/>
			<path style="fill:none;stroke:#FFFFFF;stroke-width:2;stroke-miterlimit:10;" d="M629.191,670.368
				c-31.603-2.234-67.625-25.953-70.381-53.191c-3.292-32.531,44.074-38.355,82.697-103.967
				c28.317-48.105,22.911-79.046,50.607-90.48c21.762-8.985,50.904-0.534,66.342,16.503c32.968,36.382-1.222,106.768-11.597,128.127
				C737.144,587.359,694.578,674.989,629.191,670.368z"/>
			<path style="fill:#FFDACF;" d="M775.252,445.76c-18.859,14.881-51.164,19.972-66.615,6.107
				c-18.453-16.559,5.13-44.005-6.711-100.508c-8.682-41.427-27.508-56.014-17.817-76.564c7.615-16.147,28.268-26.286,45.621-24.615
				c37.057,3.568,53.821,60.485,58.908,77.757C793.401,344.109,814.271,414.97,775.252,445.76z"/>
			<path style="fill:#7B7F97;" d="M647.557,475.133c17.985,15.926,28.716,46.819,17.806,64.481
				c-13.029,21.094-44.218,2.742-97.732,24.401c-39.235,15.88-50.259,36.992-72.199,31.093
				c-17.24-4.635-30.876-23.167-32.305-40.542c-3.05-37.104,49.999-63.68,66.098-71.745
				C544.299,475.27,610.345,442.182,647.557,475.133z"/>
			<path style="fill:#7B7F97;" d="M21.654,307.337c28.235-5.477,50.46,11.689,53.68,14.259
				c29.41,23.473,41.273,74.231,15.097,109.037c-19.748,26.259-59.494,41.24-91.423,24.324
				c-33.289-17.637-38.163-59.394-32.711-85.552C-28.754,345.657-10.895,313.651,21.654,307.337z"/>
			<g>
				<path style="fill:none;stroke:#D2CCE0;stroke-width:2;stroke-miterlimit:10;" d="M14.987,294.797
					c2.022,31.145,3.58,65.077,4.326,101.479c0.907,44.206,0.475,85.107-0.721,122.069"/>
				<path style="fill:none;stroke:#D2CCE0;stroke-width:2;stroke-miterlimit:10;" d="M30.13,549.576
					c0.67-31.259,1.159-63.219,1.442-95.852c0.567-65.332,0.261-128.184-0.721-188.341"/>
				<path style="fill:none;stroke:#D2CCE0;stroke-width:2;stroke-miterlimit:10;" d="M45.993,513.932
					c1.315-31.946,2.31-65.314,2.884-100.008c0.786-47.475,0.706-92.664,0-135.305"/>
				<path style="fill:none;stroke:#D2CCE0;stroke-width:2;stroke-miterlimit:10;" d="M62.578,303.621
					c-0.001,54.963-0.673,111.878-2.163,170.602c-0.606,23.878-1.331,47.412-2.163,70.594"/>
				<path style="fill:none;stroke:#D2CCE0;stroke-width:2;stroke-miterlimit:10;" d="M76.279,275.677
					c0.223,36.062,0.232,72.839,0,110.303c-0.379,61.163-1.378,120.517-2.884,177.956"/>
			</g>
			<path style="fill:#FBF2FE;" d="M-101.711,386.762c18.701-27.943,53.017-40.166,81.143-37.008
				c40.315,4.527,40.233,37.548,88.623,58.732c57.489,25.167,89.714-7.383,129.943,22.665
				c29.056,21.703,14.562,40.413,46.259,65.839c42.608,34.177,97.994,23.79,103.801,49.175c1.933,8.449-2.734,16.022-3.229,16.8
				c-18.885,29.695-89.647-18.818-177.007,1.609c-53.428,12.492-69.422,40.566-100.572,28.965
				c-26.583-9.9-21.067-32.628-53.102-59.539c-46.859-39.363-88.251-15.592-115.055-50.688
				C-120.057,458.235-121.574,416.442-101.711,386.762z"/>
			<path style="fill:#FFDACF;" d="M26.506,36.986c5.114,49.868,52.78,71.833,56.524,73.482
				c36.333,16.001,91.549,12.361,114.179-24.871c24.328-40.026-3.612-94.837-39.567-118.701
				C132.578-49.74,88.336-61.479,55.827-36.837C22.282-11.408,26.184,33.843,26.506,36.986z"/>
			<path style="fill:#FFDACF;" d="M117.524,345.818c-5.422,15.102,7.867,33.088,22.61,39.567c8.111,3.565,22.65,6.279,29.393-1.13
				c8.607-9.458-1.115-29.233-7.913-38.437c-4.37-5.916-12.105-16.387-23.74-15.827C128.487,330.443,120.37,337.889,117.524,345.818
				z"/>
			<path style="fill:#7B7F97;" d="M607.199,389.205c-7.781,0.762-12.93,10.367-12.708,18.211c0.122,4.315,1.96,11.284,6.629,12.708
				c5.961,1.817,12.641-6.589,15.276-11.503c1.694-3.159,4.691-8.749,2.017-13.756C616.257,390.826,611.285,388.805,607.199,389.205
				z"/>
			<path style="fill:none;stroke:#7B7F97;stroke-width:2;stroke-miterlimit:10;" d="M68.868,598.583
				c30.138-4.346,48.464-42.624,46.209-73.101c-1.241-16.767-9.626-43.553-28.045-48.263c-23.512-6.013-48.009,27.876-57.389,47.46
				c-6.029,12.588-16.7,34.869-5.409,53.875C33.342,593.884,53.045,600.865,68.868,598.583z"/>
			<path style="fill:#7B7F97;" d="M433.822-33.393c-0.524,5.431-4.516,46.777,21.29,69.438
				c29.413,25.829,60.163-3.388,117.455,16.117c49.785,16.949,58.418,50.167,92.532,45.541c29.18-3.957,46.797-31.505,50.722-37.643
				c23.867-37.322,15.895-86.516-0.611-116.921c-42.961-79.135-180.237-98.224-242.948-45.563
				C466.478-97.566,437.685-73.409,433.822-33.393z"/>
			<path style="fill:#D2CCE0;" d="M727.665-28.222c-55.162-5.273-84.418,71.845-87.074,78.847
				c-5.561,14.659-18.57,48.951-0.709,72.344c16.263,21.3,47.866,20.134,55.321,19.859c43.671-1.611,101.93-37.394,100.55-90.904
				C794.788,14.514,764.852-24.667,727.665-28.222z"/>
			<path style="fill:#FBF2FE;" d="M635.944,214.271c-1.602,5.498-0.25,12.644,4.221,16.513c8.003,6.925,24.336,1.91,32.177-8.112
				c4.77-6.097,8.639-16.912,4.309-21.936C669.652,192.618,640.469,198.74,635.944,214.271z"/>
			<path style="fill:none;stroke:#7B7F97;stroke-width:2;stroke-miterlimit:10;" d="M3.693,549.558
				C0.66,484.459,46.666,427.967,111.894,420.004c12.776-1.56,25.804-1.149,38.423,1.427c31.597,6.452,59.189,25.171,90.631,32.27
				c14.778,3.336,30.813,3.992,45.124-1.73c12.764-5.103,27.154-17.017,23.827-32.386c-0.977-4.513-4.069-8.701-8.419-10.249
				c-5.249-1.868-11.392,0.497-14.939,4.794c-8.17,9.898-4.526,25.087,2.656,34.364c10.315,13.323,25.733,19.633,41.35,24.461
				c28.609,8.846,57.983,9.842,87.253,3.858c28.359-5.798,55.362-16.742,82.273-27.405c32.703-12.958,66.508-27.295,102.217-25.835
				c29.519,1.207,59.209,12.324,78.844,35.063c2.808,3.252,7.205,8.752,12.292,18.28c20.428,38.269,21.19,83.247,18.349,114.711"/>
			<path style="fill:none;stroke:#7B7F97;stroke-width:2;stroke-miterlimit:10;" d="M138.55-38.647
				c15.677,22.558,34.015,43.517,55.422,60.812c27.525,22.236,63.443,40.278,99.445,40.736c10.827,0.138,21.68-1.326,32.059-4.422
				c9.994-2.981,22.352-10.123,25.327-20.906c3.402-12.331-8.131-25.516-20.427-18.301c-4.303,2.525-6.989,7.211-8.19,12.054
				c-6.29,25.374,14.474,46.351,35.104,57.448c19.909,10.709,45.083,5.62,65.093-2.015c22.952-8.758,45.07-21.613,69.589-23.136
				c21.55-1.338,42.68,6.322,61.976,16.009c19.296,9.687,37.553,21.529,57.592,29.568c65.249,26.174,143.294,6.252,188.697-47.183
				c26.432-31.107,40.764-72.238,39.387-113.036"/>
			<g>
				<path style="fill:none;stroke:#D2CCE0;stroke-miterlimit:10;" d="M386.809,555.595c11.363-8.655,23.335-19.067,35.183-31.56
					c37.586-39.632,56.903-82.264,67.142-112.51"/>
				<path style="fill:#D2CCE0;" d="M406.693,539.011c3.749-0.912,8.443-1.56,13.775-1.099c0.884,0.076,5.697,0.521,11.793,2.458
					c6.932,2.203,8.974,4.253,13.559,3.717c3.288-0.384,5.382-1.806,5.841-1.132c0.573,0.842-1.904,4.223-5.103,6.205
					c-6.033,3.738-13.523,1.81-19.846,0.183c-1.56-0.401-7.323-1.968-13.89-5.976C410.226,541.785,408.171,540.227,406.693,539.011z
					"/>
				<path style="fill:#D2CCE0;" d="M421.695,524.232c6.544-5.527,12.388-7.12,15.941-7.655c4.805-0.724,4.619,0.606,17.448,1.162
					c7.547,0.327,12.233,0.067,12.775,1.866c0.199,0.661-0.149,1.643-2.052,3.332c-6.269,5.567-19.051,9.612-32.909,5.982
					C430.219,528.217,426.225,526.895,421.695,524.232z"/>
				<path style="fill:#D2CCE0;" d="M437.148,506.951c1.485-1.596,11.405-11.967,23.497-10.549c4.698,0.551,8.891,2.784,14.599,5.823
					c2.838,1.511,6.74,3.618,6.395,4.862c-0.329,1.186-4.22,0.505-9.83,1.01c-8.438,0.759-10.504,3.278-16.115,3.96
					C451.415,512.577,445.227,512.01,437.148,506.951z"/>
				<path style="fill:#D2CCE0;" d="M454.961,482.334c2.638-3.616,7.285-8.537,14.253-10.423c3.502-0.948,7.859-0.464,16.574,0.504
					c5.382,0.597,11.577,1.318,11.718,2.96c0.078,0.916-1.758,1.767-2.9,2.281c-15.014,6.757-22.521,10.136-32.254,7.641
					C460.6,484.849,457.981,484.01,454.961,482.334z"/>
				<path style="fill:#D2CCE0;" d="M468.28,460.454c3.256-8.052,7.467-11.454,10.781-13.06c5.779-2.801,9.388-0.411,20.777-4.089
					c2.81-0.908,5.164-1.884,5.694-1.129c0.83,1.183-3.456,5.704-6.492,8.347c-7.124,6.201-14.534,8.301-16.301,8.771
					C477.164,460.776,472.139,460.827,468.28,460.454z"/>
				<path style="fill:#D2CCE0;" d="M479.019,438.115c1.114-2.966,3.708-8.324,9.24-11.295c2.343-1.259,6.776-1.533,15.641-2.083
					c4.663-0.289,6.828-0.22,7.35,0.905c0.676,1.457-1.765,3.914-2.714,4.869c-6.671,6.715-16.426,7.565-20.267,7.85
					C486.042,438.526,482.861,438.598,479.019,438.115z"/>
				<path style="fill:#D2CCE0;" d="M485.567,421.524c-1.524-1.844-3.738-5.138-3.871-9.395c-0.06-1.932,0.315-3.842,5.938-13.602
					c5.391-9.357,6.861-10.751,7.982-10.493c0.794,0.183,1.292,1.168,1.793,2.969c3.187,11.455-1.951,20.584-1.951,20.584
					C492.47,416.897,488.241,419.952,485.567,421.524z"/>
				<path style="fill:#D2CCE0;" d="M407.544,538.431c-1.567-4.484-4.19-11.217-8.352-18.953
					c-6.824-12.682-12.314-17.891-10.852-19.622c1.724-2.041,12.128,1.932,18.324,9.68c1.442,1.803,6.848,8.563,5.657,17.84
					C411.624,532.809,408.983,536.633,407.544,538.431z"/>
				<path style="fill:#D2CCE0;" d="M422.664,524.286c0.841-9.151,0.569-16.792,0.095-22.362c-0.886-10.405-2.597-14.975-5.435-18.68
					c-0.244-0.319-5.135-6.61-7.764-5.486c-3.092,1.322-1.198,12.106-0.676,15.082C410.184,500.234,413.437,511.43,422.664,524.286z
					"/>
				<path style="fill:#D2CCE0;" d="M437.118,506.555c-1.155-5.125-2.708-9.775-4.503-13.986c-3.253-7.635-5.676-10.022-7.055-16.4
					c-1.07-4.948-1.651-12.946,0.972-14.007c2.936-1.188,8.71,6.784,10.866,10.246c4.192,6.734,4.887,12.783,5.019,14.083
					c0.582,5.755-0.615,10.116-0.936,11.222C440.312,501.731,438.471,504.704,437.118,506.555z"/>
				<path style="fill:#D2CCE0;" d="M454.961,482.334c-1.181-2.119-3.132-5.418-5.899-9.214c-5.059-6.941-7.341-7.993-10.511-13.157
					c-3.572-5.819-6.714-14.322-4.542-15.978c1.905-1.453,7.426,2.72,9.668,4.685c4.497,3.943,6.492,8.379,9.215,14.435
					c1.715,3.815,2.755,6.185,3.095,9.701C456.377,476.857,455.624,480.214,454.961,482.334z"/>
				<path style="fill:#D2CCE0;" d="M468.02,460.309c-2.926-1.626-7.499-4.604-11.73-9.616
					c-9.654-11.436-11.016-25.752-10.246-26.039c0.148-0.055,0.335,0.422,1.755,1.979c0.97,1.064,1.741,1.782,2.453,2.445
					c6.1,5.683,16.306,12.137,18.567,20.716C469.4,451.998,469.755,455.474,468.02,460.309z"/>
				<path style="fill:#D2CCE0;" d="M479.239,438.228c-10.56-5.675-16.074-12.386-18.969-16.83
					c-0.451-0.693-6.599-10.239-4.44-12.292c1.229-1.168,4.632,0.581,6.599,1.591c8.265,4.247,12.245,11.746,13.382,14.084
					C477.101,427.436,478.907,432.032,479.239,438.228z"/>
			</g>
			<g>
				<path style="fill:none;stroke:#7B7F97;stroke-miterlimit:10;" d="M767.343,335.312c-0.855-14.258-2.829-30.001-6.6-46.801
					c-11.964-53.294-36.599-93.09-56.009-118.446"/>
				<path style="fill:#7B7F97;" d="M764.653,309.56c1.332-3.622,3.41-7.88,6.764-12.05c0.556-0.692,3.607-4.44,8.613-8.422
					c5.692-4.529,8.532-5.082,10.642-9.188c1.513-2.944,1.5-5.476,2.315-5.481c1.018-0.007,2.446,3.934,2.309,7.696
					c-0.258,7.092-6.032,12.237-10.907,16.581c-1.203,1.072-5.715,4.984-12.702,8.204
					C768.924,308.172,766.486,309.01,764.653,309.56z"/>
				<path style="fill:#7B7F97;" d="M760.74,288.868c-0.943-8.514,0.991-14.254,2.526-17.502c2.076-4.394,3.077-3.498,10.688-13.84
					c4.477-6.084,6.872-10.121,8.668-9.568c0.66,0.203,1.281,1.039,1.624,3.56c1.129,8.308-2.635,21.176-13.371,30.66
					C768.8,284.01,765.476,286.589,760.74,288.868z"/>
				<path style="fill:#7B7F97;" d="M755.002,266.406c-0.498-2.122-3.581-16.138,4.333-25.389c3.076-3.594,7.266-5.832,12.971-8.877
					c2.836-1.514,6.76-3.58,7.601-2.601c0.802,0.934-1.932,3.785-4.639,8.725c-4.071,7.43-3.131,10.549-5.692,15.588
					C767.624,257.695,763.705,262.517,755.002,266.406z"/>
				<path style="fill:#7B7F97;" d="M744.488,237.898c-1.533-4.205-3.029-10.807-0.712-17.643c1.164-3.436,3.994-6.784,9.654-13.481
					c3.495-4.136,7.546-8.878,8.987-8.08c0.804,0.445,0.488,2.444,0.278,3.679c-2.756,16.232-4.133,24.348-11.628,31.04
					C749.718,234.616,747.563,236.324,744.488,237.898z"/>
				<path style="fill:#7B7F97;" d="M733.742,214.646c-4.872-7.191-5.35-12.583-4.837-16.229c0.894-6.359,4.89-8.024,8.182-19.531
					c0.812-2.839,1.313-5.338,2.235-5.357c1.444-0.03,2.81,6.048,3.313,10.042c1.18,9.37-1.206,16.694-1.8,18.423
					C738.96,207.449,736.202,211.65,733.742,214.646z"/>
				<path style="fill:#7B7F97;" d="M721.176,193.28c-1.842-2.578-4.845-7.718-4.23-13.966c0.26-2.647,2.503-6.481,6.987-14.148
					c2.358-4.033,3.622-5.792,4.847-5.598c1.587,0.251,2.267,3.647,2.531,4.967c1.859,9.281-2.872,17.855-4.775,21.203
					C725.431,187.678,723.719,190.359,721.176,193.28z"/>
				<path style="fill:#7B7F97;" d="M711.049,178.598c-2.381,0.238-6.349,0.241-9.958-2.021c-1.638-1.027-3.015-2.403-7.985-12.51
					c-4.765-9.691-5.104-11.688-4.265-12.475c0.594-0.557,1.689-0.422,3.465,0.166c11.287,3.737,16.005,13.09,16.005,13.09
					C711.054,170.288,711.233,175.502,711.049,178.598z"/>
				<path style="fill:#7B7F97;" d="M764.646,308.53c-4.596-1.198-11.649-2.772-20.392-3.626c-14.333-1.401-21.718,0.255-22.34-1.923
					c-0.733-2.569,8.363-8.994,18.249-9.821c2.301-0.193,10.926-0.915,17.966,5.244C762.251,302.009,763.954,306.333,764.646,308.53
					z"/>
				<path style="fill:#7B7F97;" d="M761.325,288.092c-7.13-5.797-13.627-9.83-18.515-12.54c-9.134-5.063-13.882-6.189-18.54-5.897
					c-0.401,0.025-8.35,0.58-8.881,3.39c-0.625,3.304,9.384,7.741,12.147,8.965C734.399,285.053,745.509,288.591,761.325,288.092z"
					/>
				<path style="fill:#7B7F97;" d="M754.657,266.211c-4.899-1.897-9.626-3.198-14.123-4.055c-8.152-1.553-11.484-0.871-17.549-3.281
					c-4.705-1.869-11.669-5.843-11.089-8.613c0.65-3.099,10.487-3.452,14.563-3.313c7.927,0.271,13.338,3.065,14.491,3.681
					c5.103,2.724,8.058,6.148,8.797,7.031C752.431,260.87,753.874,264.056,754.657,266.211z"/>
				<path style="fill:#7B7F97;" d="M744.488,237.898c-2.417-0.2-6.244-0.418-10.938-0.236c-8.583,0.333-10.728,1.642-16.782,1.396
					c-6.822-0.276-15.633-2.405-15.798-5.132c-0.145-2.391,6.397-4.651,9.278-5.417c5.78-1.538,10.575-0.722,17.121,0.392
					c4.123,0.701,6.671,1.158,9.78,2.836C740.729,233.67,743.097,236.166,744.488,237.898z"/>
				<path style="fill:#7B7F97;" d="M733.476,214.781c-2.981,1.523-8.002,3.661-14.521,4.382
					c-14.875,1.644-27.521-5.203-27.331-6.002c0.036-0.154,0.537-0.043,2.621-0.354c1.424-0.213,2.45-0.453,3.398-0.674
					c8.118-1.898,19.164-6.776,27.548-3.873C727.344,209.004,730.429,210.646,733.476,214.781z"/>
				<path style="fill:#7B7F97;" d="M721.393,193.161c-10.597,5.606-19.241,6.445-24.545,6.373
					c-0.827-0.011-12.179-0.226-12.681-3.163c-0.286-1.671,3.063-3.523,4.999-4.593c8.132-4.496,16.577-3.622,19.151-3.263
					C711.24,188.923,716.063,189.984,721.393,193.161z"/>
			</g>
			<g>
				<path style="fill:#7B7F97;" d="M212.461-45.075c2.523,4.305,3.23,9.802,1.113,12.318c-2.119,2.519-6.363,1.197-9.064-3.013
					c-2.699-4.205-2.747-9.763-0.456-12.379C206.344-50.762,209.937-49.381,212.461-45.075z"/>
				<path style="fill:#7B7F97;" d="M224.175-56.023c0.912,1.891,0.939,4.25,0.004,5.268c-0.936,1.017-2.527,0.319-3.505-1.555
					c-0.978-1.874-0.923-4.228,0.077-5.262C221.752-58.606,223.263-57.915,224.175-56.023z"/>
				<path style="fill:#7B7F97;" d="M236.745-26.628c2.956,3.502,4.143,7.74,2.561,9.486c-1.582,1.747-5.286,0.44-8.161-2.969
					c-2.875-3.409-3.894-7.686-2.383-9.529C230.271-31.483,233.791-30.128,236.745-26.628z"/>
				<path style="fill:#7B7F97;" d="M250.75-32.829c2.978,3.84,3.785,8.281,1.906,9.889c-1.879,1.608-5.79-0.056-8.833-3.692
					c-3.044-3.636-4.023-8.009-2.085-9.82C243.676-38.261,247.773-36.669,250.75-32.829z"/>
				<path style="fill:#7B7F97;" d="M250.251-68.75c1.531,4.137-0.6,9.358-4.48,11.58c-3.88,2.221-8.438,0.665-10.352-3.431
					c-1.966-4.084-0.21-9.22,4.066-11.478C243.761-74.338,248.72-72.887,250.251-68.75z"/>
				<path style="fill:#7B7F97;" d="M279.038-42.959c1.055,1.683,0.273,3.857-1.64,4.803c-1.913,0.945-4.299,0.276-5.433-1.442
					c-1.134-1.718-0.524-3.813,1.467-4.724C275.424-45.233,277.982-44.642,279.038-42.959z"/>
				<path style="fill:#7B7F97;" d="M276.51-11.053c1.896,2.799,2.12,5.835,0.642,6.682c-1.478,0.847-4.115-0.746-6.029-3.471
					c-1.916-2.728-2.379-5.625-0.883-6.547C271.735-15.311,274.612-13.856,276.51-11.053z"/>
				<path style="fill:#7B7F97;" d="M243.931-8.286c3.88,4.464,4.863,9.787,1.965,12.115c-2.903,2.332-8.204,0.896-11.592-3.442
					c-3.388-4.338-4.076-9.996-1.701-12.462C234.979-14.542,239.967-12.798,243.931-8.286z"/>
				<path style="fill:#7B7F97;" d="M264.438,1.396c2.474,3.565,3.007,7.22,1.273,8.131c-1.733,0.911-4.974-1.053-7.283-4.358
					c-2.294-3.271-2.992-6.841-1.43-8.033C258.559-4.055,261.959-2.175,264.438,1.396z"/>
				<path style="fill:#7B7F97;" d="M303.717-1.074c1.179,1.929,0.929,4.37-0.509,5.397c-1.438,1.027-3.53,0.253-4.725-1.676
					c-1.196-1.929-1.035-4.282,0.42-5.309C300.358-3.689,302.538-3.003,303.717-1.074z"/>
				<path style="fill:#7B7F97;" d="M264.203-47.101c2.448,3.96,1.543,8.732-1.629,10.525c-3.172,1.793-7.725,0.015-10.503-3.856
					s-2.515-8.45,0.991-10.34C256.568-52.662,261.756-51.061,264.203-47.101z"/>
				<path style="fill:#7B7F97;" d="M290.828-19.988c1.651,2.843,1.106,6.436-1.001,7.822c-2.106,1.386-5.123,0.066-6.935-2.766
					c-1.815-2.836-1.619-6.115,0.673-7.502C285.856-23.821,289.228-22.821,290.828-19.988z"/>
				<path style="fill:#7B7F97;" d="M213.679-19.539c1.15,1.535,1.303,3.548,0.273,4.51c-1.03,0.962-2.816,0.516-3.921-1.01
					c-1.105-1.526-1.15-3.561-0.164-4.532C210.853-21.542,212.529-21.074,213.679-19.539z"/>
				<path style="fill:#7B7F97;" d="M293.162,20.11c3.501,5.011,3.783,9.798,0.76,10.886c-3.023,1.087-7.984-1.875-11.206-6.751
					c-3.222-4.877-3.713-9.908-0.975-11.132C284.479,11.889,289.655,15.091,293.162,20.11z"/>
				<path style="fill:#7B7F97;" d="M263.62,27.268c1.695,2.803,1.455,5.757-0.639,6.74c-2.096,0.983-5.22-0.259-6.859-2.911
					c-1.638-2.653-1.202-5.836,0.838-6.969C258.998,22.995,261.925,24.465,263.62,27.268z"/>
				<path style="fill:#7B7F97;" d="M285.888,40.643c2.406,3.361,2.377,6.551-0.152,7.353c-2.53,0.803-6.472-1.129-8.718-4.506
					c-2.246-3.377-2.068-6.916,0.301-7.702C279.687,35.003,283.482,37.282,285.888,40.643z"/>
				<path style="fill:#7B7F97;" d="M322.058,23.669c3.149,3.051,2.73,7.518-0.718,9.836c-3.448,2.319-8.55,1.467-11.523-1.814
					c-3.066-3.345-3.099-7.667,0.202-9.768S318.877,20.522,322.058,23.669z"/>
			</g>
			<g>
				<path style="fill:#FFFFFF;" d="M699.053,31.97c0.948,2.296,0.345,5.615-1.446,7.26c-1.799,1.642-3.893,0.817-4.734-1.547
					c-0.839-2.35-0.182-5.263,1.475-6.757C696.005,29.433,698.053,29.846,699.053,31.97z"/>
				<path style="fill:#FFFFFF;" d="M708.783,24.79c0.55,0.861,0.369,2.133-0.47,2.823c-0.839,0.69-1.978,0.502-2.492-0.389
					c-0.513-0.892-0.241-2.124,0.561-2.783C707.185,23.782,708.233,23.928,708.783,24.79z"/>
				<path style="fill:#FFFFFF;" d="M712.799,40.614c0.847,1.903-0.146,5.186-1.984,7.233c-1.837,2.045-3.866,1.708-4.753-0.617
					c-0.887-2.325-0.277-5.424,1.505-7.013C709.349,38.628,711.748,38.8,712.799,40.614z"/>
				<path style="fill:#FFFFFF;" d="M727.416,31.035c1.284,1.376,0.132,4.09-2.478,6.205c-2.61,2.116-5.3,2.539-6.176,0.857
					c-1.097-1.582-0.379-4.278,1.804-6.079C722.745,30.22,725.887,29.754,727.416,31.035z"/>
				<path style="fill:#FFFFFF;" d="M726.772,13.376c1.588,1.354,0.876,4.116-1.584,6.28c-2.668,2.064-6.237,2.435-7.85,0.8
					c-1.611-1.606-0.698-4.368,1.921-6.179C721.8,12.413,725.182,12.021,726.772,13.376z"/>
				<path style="fill:#FFFFFF;" d="M748.522,22.324c0.707,0.852,0.305,1.775-0.854,2.086c-1.159,0.311-2.64-0.073-3.359-0.875
					c-0.719-0.802-0.4-1.769,0.772-2.129C746.251,21.046,747.814,21.472,748.522,22.324z"/>
				<path style="fill:#FFFFFF;" d="M739.726,38.152c-0.056,1.505-1.68,3.388-3.453,4.27c-1.772,0.882-3.057,0.442-3.011-1.032
					c0.046-1.475,1.405-3.435,3.188-4.348C738.231,36.129,739.781,36.646,739.726,38.152z"/>
				<path style="fill:#FFFFFF;" d="M710.847,54.679c1.26,2.997,1.023,7.573-0.581,10.105c-1.6,2.525-4.228,1.917-5.833-1.264
					c-1.602-3.174-1.407-7.61,0.533-9.942C706.907,51.242,709.583,51.672,710.847,54.679z"/>
				<path style="fill:#FFFFFF;" d="M722.406,53.44c0.623,2.048,0.115,5.265-1.092,7.231c-1.207,1.965-2.984,2.17-4.048,0.488
					c-0.95-1.833-0.579-5.017,1.04-7.227C719.924,51.722,721.866,51.471,722.406,53.44z"/>
				<path style="fill:#FFFFFF;" d="M753.886,45.386c0.052,1.134-1.037,2.248-2.458,2.488c-1.421,0.241-2.606-0.473-2.616-1.598
					c-0.01-1.129,1.131-2.253,2.511-2.501C752.701,43.528,753.834,44.252,753.886,45.386z"/>
				<path style="fill:#FFFFFF;" d="M738.896,20.43c1.903,1.604,1.237,3.945-1.275,5.372c-2.553,1.44-5.854,1.698-7.461,0.4
					c-1.834-1.217-1.57-3.661,0.808-5.453C733.286,18.938,736.987,18.821,738.896,20.43z"/>
				<path style="fill:#FFFFFF;" d="M752.753,34.359c0.131,1.58-1.392,3.185-3.256,3.604c-1.865,0.419-3.258-0.482-3.277-2.026
					c-0.019-1.547,1.232-3.171,2.987-3.614C750.962,31.879,752.624,32.798,752.753,34.359z"/>
				<path style="fill:#FFFFFF;" d="M695.282,48.037c0.391,1.119,0.241,2.532-0.352,3.111c-0.593,0.578-1.405,0.107-1.797-1.011
					c-0.392-1.118-0.214-2.463,0.378-3.042C694.104,46.514,694.89,46.918,695.282,48.037z"/>
				<path style="fill:#FFFFFF;" d="M737.786,56.799c1.679,3.464,1.547,7.298-0.536,8.731c-1.847,1.636-5.016,0.841-6.951-1.93
					c-1.701-2.516-1.249-6.674,1.123-8.852S736.645,53.701,737.786,56.799z"/>
				<path style="fill:#FFFFFF;" d="M720.664,75.501c1.166,1.117,1.49,3.055,0.665,4.306s-2.495,1.394-3.68,0.345
					c-1.187-1.05-1.433-2.941-0.588-4.261C717.906,74.57,719.498,74.383,720.664,75.501z"/>
				<path style="fill:#FFFFFF;" d="M733.876,75.948c2.013,1.904,2.779,4.45,1.598,5.701c-1.182,1.252-3.721,0.982-5.591-0.59
					c-1.867-1.569-2.447-4.086-1.407-5.668C729.516,73.808,731.865,74.045,733.876,75.948z"/>
				<path style="fill:#FFFFFF;" d="M759.57,63.61c2.167,3.037,1.677,6.054-1.078,6.831c-2.752,0.776-6.974-1.146-9.439-4.335
					c-2.263-3.065-1.671-6.215,1.411-6.878C753.535,58.566,757.648,60.592,759.57,63.61z"/>
			</g>
			<g>
				<path style="fill:none;stroke:#FFDACF;stroke-width:2;stroke-miterlimit:10;" d="M-85.336,124.697
					c5.748-12.404,21.415-10.632,68.027-20.743c43.979-9.54,57.693-17.119,68.818-8.074c1.806,1.468,4.455,4.116,11.595,31.588
					c8.214,31.605,6.394,34.583,12.342,56.406c7.813,28.667,14.267,35.68,9.361,43.53c-3.304,5.286-8.907,6.387-38.993,10.453
					c-49.016,6.625-45.58,5.25-56.826,7.441c-30.986,6.037-37.597,12.683-46.868,7.278c-9.217-5.374-11.629-18.022-16.452-43.316
					c-3.669-19.242-1.721-21.44-5.295-44.471C-84.321,134.536-88.678,131.909-85.336,124.697z"/>
				<path style="fill:none;stroke:#FFDACF;stroke-width:2;stroke-miterlimit:10;" d="M-71.387,130.223
					c5.794-10.713,21.682-5.004,56.881-12.024c34.27-6.834,48.737-18.134,58.365-9.857c3.499,3.008,2.973,5.691,6.84,23.342
					c3.267,14.908,7.88,29.49,11.685,44.27c8.314,32.295,9.913,38.484,5.804,43.713c-2.523,3.211-5.946,4.467-22.432,6.63
					c-32.724,4.292-37.098,1.683-55.227,4.931c-23.199,4.157-30.269,10.98-37.479,5.82c-4.83-3.457-3.937-8.151-8.112-30.076
					c-1.801-9.456-4.293-19.679-9.278-40.125C-71.665,136.801-73.796,134.677-71.387,130.223z"/>
				<path style="fill:none;stroke:#FFDACF;stroke-width:2;stroke-miterlimit:10;" d="M-55.633,136.163
					c4.432-7.887,16.157-4.412,37.411-8.18c27.608-4.895,41.492-16.727,49.556-9.553c2.075,1.846,2.698,4.002,3.821,8.223
					c13.596,51.114,7.988,57.054,16.709,74.263c1.712,3.378,4.013,7.262,2.527,10.919c-2.088,5.141-9.963,5.649-26.526,7.578
					c-34.199,3.983-51.299,5.974-57.012,8.402c-4.659,1.981-8.908,4.316-12.389,2.388c-5.081-2.813-2.78-11.528-3.727-26.459
					c-0.46-7.26-3.585-22.455-9.835-52.846C-56.801,142.617-57.512,139.507-55.633,136.163z"/>
				<path style="fill:none;stroke:#FFDACF;stroke-width:2;stroke-miterlimit:10;" d="M-37.953,142.137
					c3.044-5.811,11.564-3.5,29.467-7.299c18.303-3.885,24.955-9.602,30.343-5.585c2.929,2.184,2.604,5.097,4.14,15.818
					c2.027,14.148,5.991,32.79,9.726,46.161c2.975,10.652,4.404,12.941,2.67,15.679c-4.231,6.681-16.921-0.355-38.814,4.191
					c-14.705,3.053-20.522,8.623-25.688,4.987c-3.132-2.205-2.793-5.519-4.284-20.578c-2.032-20.532-3.048-30.798-5.206-39.059
					C-37.923,147.549-39.605,145.29-37.953,142.137z"/>
			</g>
			<g>
				<path style="fill:#D2CCE0;" d="M160.235,530.942c3.676-0.54,8.271,1.543,10.004,4.74c1.727,3.207-0.232,5.944-3.966,6.304
					c-3.714,0.361-7.701-1.651-9.264-4.599C155.446,534.441,156.79,531.62,160.235,530.942z"/>
				<path style="fill:#D2CCE0;" d="M153.36,514.216c1.45-0.485,3.229,0.24,3.924,1.709c0.695,1.469,0.008,3.052-1.472,3.472
					c-1.48,0.42-3.168-0.423-3.832-1.827C151.317,516.167,151.91,514.7,153.36,514.216z"/>
				<path style="fill:#D2CCE0;" d="M177.774,514.15c3.068-0.537,7.47,2.099,9.769,5.509c2.298,3.409,1.071,6.229-2.624,6.669
					c-3.695,0.44-7.968-1.571-9.625-4.734C173.638,518.431,174.761,515.013,177.774,514.15z"/>
				<path style="fill:#D2CCE0;" d="M169.2,489.461c2.463-1.362,5.98,1.297,8.099,5.852c2.119,4.556,1.755,8.611-1.004,9.27
					c-2.694,1.015-6.343-1.007-8.162-4.829C166.317,495.94,166.785,491.213,169.2,489.461z"/>
				<path style="fill:#D2CCE0;" d="M143.35,483.97c2.542-1.811,6.289,0.227,8.533,4.583c2.023,4.62,1.263,9.933-1.695,11.677
					c-2.916,1.753-6.59-0.576-8.264-5.035C140.144,490.832,140.807,485.783,143.35,483.97z"/>
				<path style="fill:#D2CCE0;" d="M164.243,455.678c1.493-0.716,2.686,0.204,2.714,1.998c0.029,1.795-1.066,3.802-2.491,4.554
					c-1.425,0.752-2.712-0.064-2.807-1.894C161.564,458.507,162.751,456.394,164.243,455.678z"/>
				<path style="fill:#D2CCE0;" d="M184.001,474.196c2.162,0.628,4.303,3.67,4.937,6.561c0.634,2.892-0.472,4.595-2.592,3.992
					c-2.123-0.604-4.471-3.288-5.147-6.207C180.523,475.628,181.837,473.567,184.001,474.196z"/>
				<path style="fill:#D2CCE0;" d="M197.465,522.098c4.806-0.738,11.356,1.272,14.445,4.519c3.081,3.239,1.242,6.83-3.956,8.001
					c-5.187,1.169-11.549-0.728-14.227-4.39C191.047,526.562,192.643,522.838,197.465,522.098z"/>
				<path style="fill:#D2CCE0;" d="M199.874,504.881c3.197-0.159,7.679,1.749,10.091,4.216c2.41,2.466,2.062,5.119-0.765,6.049
					c-3.004,0.711-7.487-0.985-10.104-4.138C196.479,507.856,196.821,504.948,199.874,504.881z"/>
				<path style="fill:#D2CCE0;" d="M199.647,456.29c1.663,0.337,2.883,2.322,2.715,4.471c-0.169,2.149-1.635,3.607-3.269,3.212
					c-1.642-0.397-2.857-2.461-2.714-4.552C196.521,457.332,197.983,455.952,199.647,456.29z"/>
				<path style="fill:#D2CCE0;" d="M157.993,468.951c3.019-2.177,6.173-0.359,7.328,3.804c1.16,4.228,0.332,9.108-2.135,10.967
					c-2.432,2.218-5.882,0.945-7.616-3.156C153.789,476.545,154.965,471.135,157.993,468.951z"/>
				<path style="fill:#D2CCE0;" d="M183.24,453.919c2.339,0.385,4.113,3.178,4.043,6.034c-0.07,2.858-1.884,4.55-4.131,4.016
					c-2.251-0.535-4.151-2.941-4.156-5.648C178.991,455.615,180.929,453.539,183.24,453.919z"/>
				<path style="fill:#D2CCE0;" d="M182.167,542.259c1.766-0.161,3.761,0.572,4.384,1.643c0.623,1.07-0.356,2.077-2.12,2.239
					s-3.65-0.585-4.275-1.656C179.531,543.413,180.401,542.419,182.167,542.259z"/>
				<path style="fill:#D2CCE0;" d="M210.343,483.795c5.635-1.174,11.148,0.412,12.469,3.955c1.702,3.274-0.605,7.582-5.329,9.38
					c-4.268,1.551-10.135-0.616-12.431-4.85C202.756,488.046,205.434,484.323,210.343,483.795z"/>
				<path style="fill:#D2CCE0;" d="M231.239,515.435c2.044-1.284,4.973-1.049,6.487,0.603c1.514,1.652,1.115,4.126-0.838,5.464
					c-1.955,1.339-4.788,1.008-6.395-0.698C228.885,519.098,229.194,516.72,231.239,515.435z"/>
				<path style="fill:#D2CCE0;" d="M236.696,496.434c3.494-2.227,7.465-2.412,8.85-0.244c1.385,2.169,0.071,5.755-2.891,7.895
					c-2.956,2.137-6.817,2.063-8.734-0.022C232.004,501.98,233.204,498.659,236.696,496.434z"/>
				<path style="fill:#D2CCE0;" d="M228.149,454.676c5.194-2.039,9.391-0.229,9.515,4.049c0.124,4.275-4.2,9.699-9.722,12.114
					c-5.269,2.167-9.622,0.162-9.464-4.549C218.637,461.594,223.072,456.366,228.149,454.676z"/>
			</g>
			<g>
				<path style="fill:#7B7F97;" d="M-11.921-13.346c-0.996,3.579-4.762,6.936-8.387,7.225c-3.632,0.28-5.34-2.621-4.156-6.181
					c1.175-3.542,4.63-6.371,7.959-6.606C-13.178-19.142-11.144-16.77-11.921-13.346z"/>
				<path style="fill:#7B7F97;" d="M6.157-12.852C6.012-11.33,4.628-9.998,3.005-9.958c-1.624,0.04-2.793-1.229-2.578-2.753
					c0.215-1.523,1.671-2.725,3.223-2.763S6.301-14.374,6.157-12.852z"/>
				<path style="fill:#7B7F97;" d="M-3.677,9.493c-0.752,3.022-4.946,5.979-8.995,6.699c-4.048,0.72-6.129-1.545-5.034-5.102
					c1.095-3.556,4.665-6.647,8.228-6.88C-5.915,3.977-3.245,6.389-3.677,9.493z"/>
				<path style="fill:#7B7F97;" d="M22.368,11.66c0.247,2.804-3.609,4.942-8.632,5.032c-5.024,0.091-8.584-1.886-8.068-4.674
					c0.164-2.874,3.491-5.39,7.722-5.505C17.614,6.399,21.746,8.743,22.368,11.66z"/>
				<path style="fill:#7B7F97;" d="M37.864-9.746c0.626,3.057-2.756,5.658-7.648,5.943c-5.044-0.023-9.593-2.871-9.988-6.282
					c-0.42-3.376,3.198-5.791,7.952-5.515C32.89-15.458,37.238-12.806,37.864-9.746z"/>
				<path style="fill:#7B7F97;" d="M55.261,20.82c0.05,1.655-1.274,2.373-2.927,1.672c-1.652-0.701-3.044-2.515-3.154-4.123
					c-0.109-1.608,1.158-2.453,2.869-1.799C53.761,17.224,55.211,19.165,55.261,20.82z"/>
				<path style="fill:#7B7F97;" d="M30.325,31.378c-1.451,1.722-5.099,2.446-7.999,1.854c-2.9-0.592-4.009-2.293-2.598-3.987
					c1.412-1.696,4.818-2.754,7.76-2.19C30.426,27.618,31.777,29.654,30.325,31.378z"/>
				<path style="fill:#7B7F97;" d="M-18.923,24.274c-1.274,4.693-5.765,9.866-9.986,11.374c-4.21,1.504-6.747-1.632-5.711-6.86
					c1.034-5.215,5.346-10.263,9.779-11.227C-20.403,16.597-17.646,19.566-18.923,24.274z"/>
				<path style="fill:#7B7F97;" d="M-4.16,33.453c-1.15,2.987-4.711,6.312-7.944,7.516c-3.231,1.204-5.515-0.189-5.22-3.15
					c0.567-3.035,3.935-6.445,7.878-7.56C-5.503,29.144-2.984,30.636-4.16,33.453z"/>
				<path style="fill:#7B7F97;" d="M40.354,52.938c-0.982,1.383-3.292,1.694-5.187,0.67c-1.897-1.025-2.635-2.957-1.612-4.291
					c1.028-1.34,3.408-1.614,5.261-0.637C40.669,49.658,41.338,51.554,40.354,52.938z"/>
				<path style="fill:#7B7F97;" d="M45.66,9.728c0.766,3.642-2.173,5.789-6.447,5.158c-4.335-0.653-8.461-3.388-9.161-6.396
					c-1.042-3.122,1.52-5.76,5.972-5.683C40.421,2.806,44.891,6.074,45.66,9.728z"/>
				<path style="fill:#7B7F97;" d="M49.17,38.9c-1.3,1.982-4.572,2.472-7.154,1.251c-2.584-1.222-3.396-3.566-1.997-5.405
					c1.401-1.841,4.371-2.603,6.847-1.51C49.342,34.328,50.455,36.941,49.17,38.9z"/>
				<path style="fill:#7B7F97;" d="M-31.154,2.118c-0.569,1.679-2.047,3.206-3.278,3.342c-1.231,0.136-1.755-1.167-1.188-2.845
					c0.567-1.678,2.014-3.1,3.246-3.237C-31.141-0.76-30.586,0.439-31.154,2.118z"/>
				<path style="fill:#7B7F97;" d="M10.874,51.569c-1.21,5.627-4.894,10.025-8.669,9.797c-3.683,0.229-6.686-3.626-6.415-8.673
					c0.312-4.531,4.671-9.016,9.472-9.399C10.063,42.911,12.381,46.868,10.874,51.569z"/>
				<path style="fill:#7B7F97;" d="M-26.52,57.85c0.345,2.389-1.056,4.971-3.18,5.686c-2.124,0.715-4.224-0.653-4.656-2.981
					c-0.432-2.33,1.019-4.786,3.23-5.564C-28.914,54.214-26.865,55.461-26.52,57.85z"/>
				<path style="fill:#7B7F97;" d="M-11.36,70.539c0.62,4.096-0.82,7.802-3.364,8.189c-2.545,0.387-5.29-2.268-6.047-5.842
					c-0.756-3.568,0.877-7.068,3.559-7.976C-14.529,64.003-11.979,66.446-11.36,70.539z"/>
				<path style="fill:#7B7F97;" d="M30.279,79.649c-0.241,5.574-3.597,8.678-7.558,7.058c-3.958-1.619-7.165-7.77-7.135-13.797
					c0.154-5.695,3.751-8.862,7.994-6.808C27.809,68.15,30.792,74.322,30.279,79.649z"/>
			</g>
			<path style="fill:none;stroke:#FFDACF;stroke-width:2;stroke-miterlimit:10;" d="M608.463-42.217
				c-28.084-11.766-63.482,11.644-77.216,38.944c-7.556,15.019-14.134,42.305-0.758,55.814
				c17.075,17.245,55.509,0.772,73.623-11.204c11.643-7.698,32.251-21.322,32.337-43.429
				C636.518-19.923,623.207-36.04,608.463-42.217z"/>
			<path style="fill:none;stroke:#FFDACF;stroke-width:2;stroke-miterlimit:10;" d="M597.665-23.307
				c-17.456-7.313-39.457,7.237-47.993,24.205c-4.696,9.335-8.785,26.294-0.471,34.691c10.613,10.719,34.501,0.48,45.76-6.963
				c7.237-4.785,20.045-13.253,20.099-26.993C615.103-9.451,606.829-19.468,597.665-23.307z"/>
			<path style="fill:#FFDACF;" d="M467.705-48.452c-22.503-14.823-57.115-0.248-73.521,21.25
				c-9.026,11.827-19.207,34.484-9.781,48.419c12.032,17.789,48.151,9.744,65.863,2.289c11.384-4.792,31.534-13.274,35.222-32.486
				C488.461-24.478,479.519-40.67,467.705-48.452z"/>
		</g>
	</g>
</g>
</svg>
